<svg xmlns="http://www.w3.org/2000/svg" viewBox="0 0 1600 1000">
<defs><linearGradient id="paint" x1="0" y1="0" x2="1" y2="1"><stop stop-color="#1a1a1a"/><stop offset=".42" stop-color="#555"/><stop offset=".65" stop-color="#0a0a0a"/><stop offset="1" stop-color="#1b1b1b"/></linearGradient><radialGradient id="gold" cx=".2" cy=".4" r=".8"><stop stop-color="#D4AF37" stop-opacity=".28"/><stop offset="1" stop-color="#050505" stop-opacity="0"/></radialGradient></defs>
<rect width="1600" height="1000" fill="#050505"/><rect width="1600" height="1000" fill="url(#gold)"/><g opacity=".15" stroke="#fff" stroke-width="1"><path d="M0 700h1600M0 520h1600M0 340h1600M250 0v1000M520 0v1000M790 0v1000M1060 0v1000M1330 0v1000"/></g>
<ellipse cx="810" cy="785" rx="600" ry="60" fill="#000" opacity=".78"/><path d="M170 650 C270 565 410 530 610 515 C735 390 965 390 1080 515 C1240 525 1370 560 1460 650 C1480 705 1425 760 1325 770 H310 C210 765 158 715 170 650Z" fill="url(#paint)"/>
<path d="M640 510 C735 410 930 410 1042 516 Z" fill="#070707" opacity=".94"/><path d="M198 670 H410" stroke="#D4AF37" stroke-width="18" stroke-linecap="round" opacity=".9"/><path d="M1220 668 H1435" stroke="#D4AF37" stroke-width="18" stroke-linecap="round" opacity=".85"/><circle cx="470" cy="765" r="96" fill="#050505"/><circle cx="470" cy="765" r="50" fill="#1c1c1c" stroke="#777"/><circle cx="1162" cy="765" r="96" fill="#050505"/><circle cx="1162" cy="765" r="50" fill="#1c1c1c" stroke="#777"/><text x="90" y="128" fill="#D4AF37" font-family="Arial" font-size="30" letter-spacing="12" font-weight="700">SEDAN FINISH</text></svg>
