<svg xmlns="http://www.w3.org/2000/svg" viewBox="0 0 1600 1000">
<defs><linearGradient id="paint" x1="0" y1="0" x2="1" y2="1"><stop stop-color="#f5f3ee"/><stop offset=".55" stop-color="#9b9b96"/><stop offset="1" stop-color="#242424"/></linearGradient><radialGradient id="gold" cx=".25" cy=".4" r=".8"><stop stop-color="#D4AF37" stop-opacity=".35"/><stop offset=".75" stop-color="#050505" stop-opacity="0"/></radialGradient></defs>
<rect width="1600" height="1000" fill="#050505"/><rect width="1600" height="1000" fill="url(#gold)"/><g opacity=".18" stroke="#fff" stroke-width="1"><path d="M0 700h1600M0 540h1600M0 380h1600M200 0v1000M440 0v1000M680 0v1000M920 0v1000M1160 0v1000M1400 0v1000"/></g>
<ellipse cx="810" cy="790" rx="520" ry="55" fill="#000" opacity=".75"/><path d="M260 660 C330 520 430 450 610 430 L860 420 C1000 422 1120 488 1240 595 C1325 602 1395 635 1430 700 C1415 748 1365 770 1292 770 H344 C286 760 250 722 260 660Z" fill="url(#paint)"/>
<path d="M520 438 C610 315 733 290 870 420 L609 429 Z" fill="#181818"/><path d="M628 424 C710 336 792 333 865 418 Z" fill="#050505" opacity=".9"/><path d="M275 676 H420" stroke="#D4AF37" stroke-width="22" stroke-linecap="round"/><path d="M1220 670 H1380" stroke="#D4AF37" stroke-width="22" stroke-linecap="round"/><circle cx="485" cy="760" r="94" fill="#050505"/><circle cx="485" cy="760" r="52" fill="#202020" stroke="#777"/><circle cx="1135" cy="760" r="94" fill="#050505"/><circle cx="1135" cy="760" r="52" fill="#202020" stroke="#777"/><text x="90" y="128" fill="#D4AF37" font-family="Arial" font-size="30" letter-spacing="12" font-weight="700">HATCHBACK DETAILING</text></svg>
