<svg xmlns="http://www.w3.org/2000/svg" viewBox="0 0 1600 1000">
<defs><linearGradient id="paint" x1="0" y1="0" x2="1" y2="1"><stop stop-color="#f1f1ec"/><stop offset=".45" stop-color="#666"/><stop offset="1" stop-color="#151515"/></linearGradient><radialGradient id="gold" cx=".18" cy=".35" r=".9"><stop stop-color="#D4AF37" stop-opacity=".32"/><stop offset="1" stop-color="#050505" stop-opacity="0"/></radialGradient></defs>
<rect width="1600" height="1000" fill="#050505"/><rect width="1600" height="1000" fill="url(#gold)"/><g opacity=".16" stroke="#fff" stroke-width="1"><path d="M0 720h1600M0 540h1600M0 360h1600M240 0v1000M500 0v1000M760 0v1000M1020 0v1000M1280 0v1000"/></g>
<ellipse cx="815" cy="810" rx="590" ry="60" fill="#000" opacity=".78"/><path d="M220 640 C300 525 430 475 610 468 L740 365 H1020 C1125 380 1210 495 1275 555 C1385 575 1455 632 1470 700 C1445 760 1392 780 1290 780 H330 C250 772 205 715 220 640Z" fill="url(#paint)"/>
<path d="M645 462 L760 385 H990 C1070 402 1120 466 1166 535 L740 532 Z" fill="#060606" opacity=".92"/><path d="M245 668 H420" stroke="#D4AF37" stroke-width="20" stroke-linecap="round"/><path d="M1220 668 H1430" stroke="#D4AF37" stroke-width="20" stroke-linecap="round"/><circle cx="500" cy="780" r="110" fill="#050505"/><circle cx="500" cy="780" r="58" fill="#1d1d1d" stroke="#777"/><circle cx="1160" cy="780" r="110" fill="#050505"/><circle cx="1160" cy="780" r="58" fill="#1d1d1d" stroke="#777"/><text x="90" y="128" fill="#D4AF37" font-family="Arial" font-size="30" letter-spacing="12" font-weight="700">SUV PROTECTION</text></svg>
